<svg xmlns="http://www.w3.org/2000/svg" xmlns:xlink="http://www.w3.org/1999/xlink" version="1.1" style="enable-background:new 0 0 488 488;" xml:space="preserve" width="488" height="488"><rect id="backgroundrect" width="100%" height="100%" x="0" y="0" fill="none" stroke="none"/>
















<g class="currentLayer" style=""><title>Layer 1</title><g id="svg_1" class="selected" fill="#141644" fill-opacity="1">
	<g id="svg_2" fill="#141644" fill-opacity="1">
		<g id="svg_3" fill="#141644" fill-opacity="1">
			<path d="M478.001,426.8090146484375 L478.001,426.8090146484375 l-20.498,0 v-30.395 c0,-5.499 -4.5,-9.998 -9.999,-9.998 h-31.196 V152.65201464843744 h61.593 c4.5,0 8.499,-3.1 9.699,-7.499 c1.2,-4.399 -0.8,-8.999 -4.699,-11.298 l-233.973,-132.58 c-3.1,-1.7000000000000002 -6.799,-1.7000000000000002 -9.899000000000001,0 L5.055,133.85401464843756 c-4,2.2 -5.899,6.899 -4.699,11.298 c1.2,4.399 5.099,7.499 9.699,7.499 h61.593 v233.764 H40.451 c-5.499,0 -9.999,4.499 -9.999,9.998 v30.395 H10.055 c-5.499,0 -9.999,4.499 -9.999,9.998 v41.194 c0,5.499 4.499,9.999 9.999,9.999 h467.946 c5.499,0 9.999,-4.499 9.999,-9.999 v-41.194 C488,431.3090146484375 483.501,426.8090146484375 478.001,426.8090146484375 zM47.951,132.6550146484375 l196.078,-111.083 l196.077,111.083 H47.951 zM396.411,152.65201464843744 v233.764 h-40.995 V152.65201464843744 H396.411 zM335.418,152.65201464843744 v233.764 h-50.894 V152.65201464843744 H335.418 zM264.526,152.65201464843744 v233.764 H223.53 V152.65201464843744 H264.526 zM203.533,152.65201464843744 v233.764 h-50.894 V152.65201464843744 H203.533 zM132.641,152.65201464843744 v233.764 H91.646 V152.65201464843744 H132.641 zM50.55,406.4130146484375 h386.956 v20.397 H50.55 V406.4130146484375 zM468.002,468.00301464843756 H20.054 v-21.197 h427.451 h20.498 V468.00301464843756 z" id="svg_4" fill="#141644" fill-opacity="1"/>
			<path d="M319.819,92.8610146484375 l-70.892,-40.394 c-3.1,-1.7000000000000002 -6.799,-1.7000000000000002 -9.899000000000001,0 l-70.892,40.394 c-3.9,2.3 -5.899,6.899 -4.699,11.298 c1.2,4.299 5.199,7.399 9.699,7.399 H314.92 c4.5,0 8.499,-3.1 9.599,-7.399 C325.719,99.7600146484375 323.719,95.06001464843746 319.819,92.8610146484375 zM210.932,91.56101464843755 l33.196,-18.897 l33.096,18.897 H210.932 z" id="svg_5" fill="#141644" fill-opacity="1"/>
		</g>
	</g>
</g><g id="svg_6">
</g><g id="svg_7">
</g><g id="svg_8">
</g><g id="svg_9">
</g><g id="svg_10">
</g><g id="svg_11">
</g><g id="svg_12">
</g><g id="svg_13">
</g><g id="svg_14">
</g><g id="svg_15">
</g><g id="svg_16">
</g><g id="svg_17">
</g><g id="svg_18">
</g><g id="svg_19">
</g><g id="svg_20">
</g></g></svg>